<svg xmlns="http://www.w3.org/2000/svg" width="45.494" height="50.856" viewBox="0 0 45.494 50.856">
  <g id="chronometer" transform="translate(-26.994)">
    <path id="Path_5817" data-name="Path 5817" d="M66.844,13.113l1.72-1.72L70.27,13.1l2.107-2.107-5.52-5.519L64.75,7.581l1.706,1.706-1.72,1.72A22.548,22.548,0,0,0,51.231,5.412V2.98H56.5V0H42.986V2.98h5.265V5.412A22.747,22.747,0,0,0,33.656,44.194a22.747,22.747,0,0,0,33.188-31.08Zm-17.1,34.763A19.767,19.767,0,1,1,69.508,28.11,19.789,19.789,0,0,1,49.741,47.877Z" fill="#1F19FF"/>
    <path id="Path_5818" data-name="Path 5818" d="M102.635,112.715a16.913,16.913,0,1,0,16.913,16.913,16.933,16.933,0,0,0-16.913-16.913Zm1.49,30.767V140.4h-2.98v3.08a13.959,13.959,0,0,1-12.364-12.364h3.08v-2.98h-3.08a13.959,13.959,0,0,1,12.364-12.364v3.08h2.98v-3.08a13.959,13.959,0,0,1,12.364,12.364h-3.08v2.98h3.08A13.959,13.959,0,0,1,104.125,143.482Z" transform="translate(-52.894 -101.519)" fill="#1F19FF"/>
    <path id="Path_5819" data-name="Path 5819" d="M196.093,220.507a2.584,2.584,0,0,0-.435.037l-4.064-4.064-2.107,2.107,4.064,4.064a2.579,2.579,0,1,0,2.542-2.144Z" transform="translate(-146.352 -194.977)" fill="#1F19FF"/>
  </g>
</svg>
