<svg xmlns="http://www.w3.org/2000/svg" width="50.984" height="50.981" viewBox="0 0 50.984 50.981">
  <path id="dumbbell" d="M41.762.021V6.5H39.116a3.968,3.968,0,0,0-6.193-1.7,3.964,3.964,0,0,0-4.955,0,3.964,3.964,0,0,0-4.955,0A3.968,3.968,0,0,0,16.82,6.5h-7.6V.021H0V25.256H9.219V18.764h2.39v1.881a7.287,7.287,0,0,0,5.781,7.121v4.206a14.465,14.465,0,0,1-.578,4.049L15.1,41.9a17.453,17.453,0,0,0-.7,4.885V51H17.39V46.781a14.466,14.466,0,0,1,.578-4.049l1.712-5.875a17.452,17.452,0,0,0,.7-4.885v-7.04H18.883A4.292,4.292,0,0,1,14.6,20.645V18.764h1.968v1.7h2.987V7.9a.984.984,0,0,1,1.968,0v2.936h2.987V7.9a.984.984,0,1,1,1.968,0v2.936h2.987V7.9a.984.984,0,0,1,1.968,0v2.936h2.987V7.9a.984.984,0,0,1,1.968,0V21.891a3.045,3.045,0,0,1-3.042,3.042H31.849v7.039a17.453,17.453,0,0,0,.7,4.885l1.712,5.875a14.466,14.466,0,0,1,.578,4.049V51h2.987V46.781a17.454,17.454,0,0,0-.7-4.885l-1.712-5.875a14.465,14.465,0,0,1-.578-4.049V27.733a6.04,6.04,0,0,0,4.535-5.842V18.764h2.39v6.491h9.223V.021ZM6.231,22.268H2.987V3.008H6.231Zm2.987-6.491V9.49h7.345v6.287Zm30.153,0V9.49h2.39v6.287ZM48,22.268H44.749V3.008H48Z" transform="translate(0 -0.021)" fill="#349AFF"/>
</svg>
