<svg xmlns="http://www.w3.org/2000/svg" width="49.432" height="49.513" viewBox="0 0 49.432 49.513">
  <g id="muscles" transform="translate(-0.416)">
    <path id="Path_5820" data-name="Path 5820" d="M36.293,21.824a13.511,13.511,0,0,0-9.65,3.967q-.329.328-.632.673a11.916,11.916,0,0,0-13.046-.285V14.808h8.474v-7.6A7.215,7.215,0,0,0,14.232,0H4.768L4.443,1C.724,12.494-1.24,31.114,2.2,44.473l.187.728.7.267A66.47,66.47,0,0,0,25.153,49.49q.952.022,1.914.022a93.123,93.123,0,0,0,21.672-2.637l1.109-.269V35.559A13.7,13.7,0,0,0,36.293,21.824ZM46.946,44.317c-15.053,3.456-30.292,2.987-42.117-1.3C1.872,30.637,3.571,13.831,6.889,2.9h7.342a4.31,4.31,0,0,1,4.3,4.1H14.876V5.293h-2.9V9.9h6.563v2H10.062V33.02l2.526-2.784a9.018,9.018,0,0,1,11.75-1.4,13.528,13.528,0,0,0-1.7,6.59h2.9a10.7,10.7,0,0,1,10.7-10.7h.038A10.787,10.787,0,0,1,46.946,35.559Z" transform="translate(0)" fill="#349AFF"/>
    <path id="Path_5821" data-name="Path 5821" d="M286.181,40.891h8.126V35.1h4.613L290.244,24.93,281.568,35.1h4.613ZM290.244,29.4l2.385,2.795H291.4v5.793h-2.322V32.2h-1.224Z" transform="translate(-253.955 -22.518)" fill="#349AFF"/>
  </g>
</svg>
